<svg viewBox="0 0 1529 547" xmlns="http://www.w3.org/2000/svg" fill-rule="evenodd" clip-rule="evenodd" stroke-linejoin="round" stroke-miterlimit="1.414"><path d="M51.023 215.776l.19.002.19.003.19.004.19.005.189.007.189.008.188.009.189.01.188.011.374.026.187.015.187.016.187.017.186.019.185.019.186.021.185.021.184.023.184.024.368.052.183.027.183.029.182.03.183.03.181.032.182.033.181.034.36.072.18.037.358.078.179.041.178.042.178.043.177.044.177.045.176.046.177.047.175.048.175.049.175.05.348.104.173.053.346.11.172.057.171.057.342.118.34.122.169.063.169.064.168.064.168.066.167.066.166.068.167.068.33.14.165.072.164.072.164.074.163.074.324.152.162.077.161.078.16.079.16.081.318.162.158.083.158.084.157.085.312.172.31.176.154.089.154.09.153.092.304.184.151.094.151.095.15.095.298.194.148.098.147.099.147.1.292.202.145.103.144.103.143.104.143.105.143.106.282.214.141.108.139.11.139.109.139.111.274.224.137.113.135.114.135.115.268.232.133.117.132.118.262.238.13.12.129.121.128.122.128.123.127.123.126.124.126.125.249.251.123.127.122.128.122.129.121.129.24.26.236.264.234.266.115.134.115.135.114.136.113.136.113.137.222.276.11.139.109.14.108.14.108.141.212.284.105.143.104.143.104.145.204.29.1.146.1.147.099.148.098.148.098.149.096.149.19.3.094.151.093.152.092.153.091.153.09.153.089.154.089.155.087.155.087.156.17.314.084.157.083.158.082.159.081.159.08.16.079.161.078.16.078.162.076.162.075.162.075.164.073.163.072.164.072.165.07.165.07.166.068.166.068.167.067.167.065.167.065.169.063.168.063.169.122.34.06.171.116.342.056.172.056.173.054.173.053.173.053.174.051.174.05.175.049.175.049.176.047.176.046.176.045.177.044.178.042.177.042.178.041.179.078.358.074.36.035.181.034.181.033.181.032.182.031.182.029.182.029.183.027.183.027.184.025.184.024.184.023.185.022.185.02.185.02.186.018.186.017.186.016.187.015.187.014.187.024.376.01.188.009.189.014.378.005.189.005.19.003.19.002.191v.381l-.002.19-.003.19-.005.19-.005.19-.007.189-.007.189-.009.188-.01.189-.012.188-.012.187-.014.188-.015.187-.016.186-.017.187-.018.186-.02.185-.02.186-.022.185-.023.184-.024.185-.025.183-.027.184-.027.183-.029.183-.029.183-.031.182-.032.181-.033.182-.034.181-.035.18-.037.18-.037.18-.039.179-.039.179-.041.179-.042.178-.042.178-.044.177-.045.177-.046.177-.047.176-.049.175-.049.175-.05.175-.051.174-.053.174-.053.174-.054.172-.056.173-.056.172-.058.171-.058.172-.06.17-.061.17-.061.17-.063.169-.063.169-.065.168-.065.168-.067.167-.068.166-.068.167-.07.165-.07.165-.072.165-.072.164-.073.164-.075.163-.075.162-.076.162-.078.162-.078.161-.079.16-.08.16-.081.159-.082.159-.083.158-.084.158-.085.157-.085.156-.087.156-.087.155-.089.155-.089.154-.09.154-.091.153-.092.152-.093.152-.094.151-.095.151-.095.15-.096.149-.098.149-.098.148-.099.147-.1.147-.1.146-.102.146-.102.145-.104.144-.104.144-.105.143-.106.142-.106.142-.108.141-.108.14-.109.14-.11.139-.111.138-.111.137-.113.137-.113.137-.114.135-.115.135-.115.134-.117.134-.117.133-.118.132-.118.131-.12.131-.12.13-.121.129-.122.128-.122.128-.123.127-.125.126-.124.126-.126.125-.126.124-.127.123-.128.122-.128.122-.129.121-.13.12-.131.12-.131.119-.132.117-.133.118-.134.116-.134.115-.135.115-.135.114-.137.113-.137.113-.137.111-.139.111-.139.11-.139.109-.141.108-.141.108-.141.106-.143.106-.143.105-.143.104-.144.104-.145.102-.146.102-.146.1-.147.1-.147.099-.148.098-.149.098-.149.096-.15.096-.151.094-.151.094-.152.093-.152.092-.153.091-.154.09-.154.089-.155.089-.155.087-.156.087-.156.086-.157.084-.158.084-.158.083-.159.082-.159.081-.16.08-.16.079-.161.078-.162.078-.162.076-.162.075-.163.075-.164.073-.164.072-.165.072-.165.07-.165.07-.167.068-.166.068-.167.067-.168.065-.168.065-.169.063-.169.063-.17.062-.17.06-.171.06-.171.058-.171.058-.172.056-.173.056-.173.054-.173.053-.174.053-.174.051-.175.05-.175.05-.175.048-.177.047-.176.046-.177.045-.177.044-.178.042-.178.042-.179.041-.179.04-.179.038-.18.037-.18.037-.18.035-.181.034-.182.033-.181.032-.183.031-.182.029-.183.029-.183.027-.184.027-.184.025-.184.024-.184.023-.185.022-.186.02-.185.02-.186.018-.187.017-.187.016-.187.015-.187.014-.187.012-.188.012-.189.01-.188.009-.189.008-.189.006-.19.006-.19.004-.19.003-.19.002h-.382l-.19-.002-.19-.003-.19-.004-.189-.006-.189-.006-.189-.008-.189-.009-.188-.01-.188-.012-.188-.012-.187-.014-.187-.015-.187-.016-.186-.017-.186-.018-.186-.02-.185-.02-.185-.022-.185-.023-.184-.024-.184-.025-.184-.027-.183-.027-.183-.029-.182-.029-.182-.031-.182-.032-.181-.033-.181-.034-.181-.035-.18-.037-.18-.037-.179-.038-.179-.04-.179-.041-.178-.042-.178-.042-.177-.044-.177-.045-.176-.046-.176-.047-.176-.048-.175-.05-.175-.05-.174-.051-.174-.053-.173-.053-.173-.054-.173-.056-.172-.056-.171-.058-.171-.058-.171-.06-.17-.06-.17-.062-.169-.063-.168-.063-.169-.065-.167-.065-.167-.067-.167-.068-.166-.068-.166-.07-.165-.07-.165-.072-.164-.072-.164-.073-.163-.075-.162-.075-.162-.076-.162-.078-.16-.078-.161-.079-.16-.08-.159-.081-.159-.082-.158-.083-.157-.084-.157-.084-.157-.086-.156-.087-.155-.087-.155-.089-.154-.089-.154-.09-.152-.091-.153-.092-.152-.093-.151-.094-.15-.094-.15-.096-.15-.096-.148-.098-.148-.098-.148-.099-.147-.1-.146-.1-.145-.102-.145-.102-.145-.104-.143-.104-.143-.105-.142-.106-.142-.106-.141-.108-.14-.108-.14-.109-.139-.11-.138-.111-.138-.111-.137-.113-.136-.113-.136-.114-.135-.115-.134-.115-.133-.116-.133-.118-.132-.117-.132-.119-.13-.12-.13-.12-.129-.121-.129-.122-.128-.122-.127-.123-.126-.124-.125-.125-.125-.126-.124-.126-.124-.127-.122-.128-.122-.128-.121-.129-.12-.13-.119-.131-.119-.131-.118-.132-.117-.133-.117-.134-.115-.134-.115-.135-.114-.135-.113-.137-.112-.137-.112-.137-.111-.138-.11-.139-.109-.14-.108-.14-.107-.141-.107-.142-.106-.142-.105-.143-.104-.144-.103-.144-.103-.145-.101-.146-.101-.146-.1-.147-.099-.147-.098-.148-.097-.149-.097-.149-.095-.15-.095-.151-.094-.151-.093-.152-.091-.152-.092-.153-.09-.154-.089-.154-.088-.155-.088-.155-.087-.156-.085-.156-.085-.157-.084-.158-.083-.158-.082-.159-.081-.159-.08-.16-.079-.16-.078-.161-.077-.162-.077-.162-.075-.162-.074-.163-.074-.164-.072-.164-.072-.165-.07-.165-.07-.165-.068-.167-.068-.166-.066-.167-.066-.168-.064-.168-.064-.169-.063-.169-.061-.17-.061-.17-.059-.17-.059-.172-.057-.171-.057-.172-.055-.173-.055-.172-.053-.174-.052-.174-.052-.174-.05-.175-.049-.175-.048-.175-.047-.176-.046-.177-.045-.177-.044-.177-.043-.178-.042-.178-.041-.179-.039-.179-.039-.179-.037-.18-.036-.18-.036-.18-.034-.181-.033-.182-.032-.181-.03-.182-.03-.183-.029-.183-.027-.183-.026-.184-.026-.183-.024-.185-.023-.184-.021-.185-.021-.186-.019-.185-.019-.186-.017-.187-.016-.186-.015-.187-.013-.188-.013-.187-.011-.188-.01-.189-.009-.188-.008-.189-.007-.189-.005-.19-.004-.19-.003-.19-.002-.19-.001-.191.001-.19.002-.191.003-.19.004-.19.005-.189.007-.189.008-.189.009-.189.01-.188.011-.188.013-.188.013-.187.015-.187.016-.187.017-.186.019-.186.019-.186.021-.185.021-.185.023-.185.024-.184.026-.184.026-.184.027-.183.029-.183.03-.182.03-.182.032-.182.033-.181.034-.181.036-.181.036-.18.037-.18.039-.179.039-.179.041-.179.042-.178.043-.177.044-.178.045-.177.046-.176.047-.176.048-.176.049-.175.05-.175.052-.174.052-.174.053-.173.055-.173.055-.173.057-.172.057-.171.059-.171.059-.171.061-.17.061-.17.063-.169.064-.168.064-.169.066-.167.066-.167.068-.167.068-.166.07-.166.07-.165.072-.165.072-.164.074-.163.074-.164.075-.162.077-.162.077-.162.078-.16.079-.161.08-.16.081-.159.082-.159.083-.158.084-.157.085-.157.085-.157.087-.156.088-.155.088-.155.089-.154.09-.153.092-.153.091-.153.093-.152.094-.151.095-.15.095-.15.097-.149.097-.149.098-.148.099-.148.1-.147.101-.146.101-.145.103-.145.103-.145.104-.143.105-.143.106-.142.107-.142.107-.141.108-.14.109-.14.11-.139.111-.138.112-.138.112-.137.113-.136.114-.136.115-.135.115-.134.117-.133.117-.133.118-.132.119-.132.119-.13.12-.13.121-.129.122-.129.122-.128.124-.127.124-.126.125-.125.125-.125.126-.124.127-.123.128-.123.129-.122.129-.121.13-.12.13-.119.132-.119.132-.118.133-.117.133-.116.134-.116.135-.115.136-.114.136-.113.137-.112.138-.112.138-.111.139-.109.14-.11.14-.108.141-.107.142-.107.142-.106.143-.105.143-.104.145-.103.145-.103.145-.101.146-.101.147-.1.148-.099.148-.098.148-.097.15-.097.15-.095.15-.095.151-.094.152-.092.153-.092.152-.092.154-.09.154-.089.155-.088.155-.088.156-.086.157-.086.157-.085.157-.084.158-.083.159-.081.159-.081.16-.081.161-.079.16-.078.162-.077.162-.076.162-.076.163-.074.164-.074.164-.072.165-.072.165-.07.166-.07.166-.068.167-.068.167-.066.167-.066.169-.064.168-.064.169-.063.17-.061.17-.061.171-.059.171-.059.171-.057.172-.057.173-.055.173-.055.173-.053.174-.052.174-.052.175-.05.175-.049.176-.048.176-.047.176-.046.177-.045.177-.044.178-.043.178-.042.179-.041.179-.039.179-.039.18-.037.18-.036.181-.036.181-.034.181-.033.182-.032.182-.03.182-.03.183-.029.183-.027.184-.026.184-.026.184-.024.185-.023.185-.021.185-.021.186-.019.186-.019.186-.017.187-.016.187-.015.187-.013.188-.013.188-.011.188-.01.189-.009.189-.008.189-.007.189-.005.19-.004.19-.003.19-.002.191-.001.191.001zm-.319 10l-.126.001-.126.002-.127.003-.126.003-.126.005-.125.005-.126.006-.125.007-.124.007-.125.008-.125.009-.123.01-.124.011-.124.011-.123.012-.122.013-.123.014-.122.014-.123.015-.122.016-.121.017-.121.017-.121.018-.12.019-.121.02-.12.02-.12.021-.119.022-.12.023-.119.023-.118.024-.119.024-.117.026-.118.026-.118.027-.117.027-.117.028-.117.029-.117.03-.116.03-.116.031-.116.032-.114.032-.115.033-.115.034-.115.034-.114.035-.113.036-.114.037-.113.037-.113.038-.113.038-.112.04-.112.039-.112.041-.111.041-.111.042-.111.043-.11.043-.111.044-.11.044-.109.045-.109.046-.109.047-.108.047-.109.047-.108.049-.107.049-.107.049-.107.051-.107.051-.105.051-.106.052-.106.053-.105.054-.105.054-.104.055-.104.055-.104.056-.103.057-.104.057-.102.058-.102.058-.102.059-.102.06-.101.06-.1.06-.101.062-.1.062-.099.063-.1.063-.098.064-.099.064-.098.065-.097.065-.098.067-.097.066-.095.067-.097.069-.095.068-.095.069-.095.069-.095.071-.093.07-.094.071-.093.072-.092.073-.092.072-.092.074-.092.074-.09.074-.091.075-.089.076-.09.076-.089.077-.089.077-.088.078-.087.078-.087.078-.087.08-.087.08-.085.08-.085.08-.085.082-.084.082-.084.082-.083.083-.083.083-.083.084-.081.084-.081.085-.081.085-.081.086-.08.086-.079.087-.078.087-.078.087-.078.089-.077.088-.077.089-.076.09-.076.09-.075.09-.074.09-.074.092-.074.092-.073.092-.072.092-.072.093-.071.094-.071.094-.07.094-.069.095-.069.095-.069.095-.068.097-.067.096-.066.097-.066.097-.066.097-.065.098-.064.099-.064.098-.063.1-.063.099-.062.1-.062.101-.06.1-.06.102-.06.101-.059.102-.058.102-.058.103-.058.103-.056.103-.056.104-.055.104-.055.104-.054.105-.054.105-.052.105-.053.106-.051.107-.051.106-.051.107-.049.107-.049.108-.049.107-.047.109-.047.108-.047.109-.046.109-.045.11-.044.109-.044.111-.044.11-.042.111-.042.111-.041.111-.041.112-.039.112-.04.112-.038.113-.038.113-.037.113-.037.113-.036.114-.035.115-.034.114-.034.115-.033.114-.032.116-.032.115-.031.116-.03.116-.03.117-.029.117-.028.116-.028.118-.026.118-.026.117-.026.118-.024.119-.024.119-.024.119-.022.119-.022.12-.021.119-.02.12-.02.121-.019.12-.018.121-.017.121-.017.122-.016.122-.015.122-.014.122-.014.123-.013.122-.012.124-.011.123-.011.124-.01.124-.009.124-.008.124-.008.125-.006.125-.006.125-.005.126-.005.126-.003.126-.003.126-.002.127-.001.127-.001.127.002.254.002.127.003.127.003.126.005.125.005.126.012.25.016.25.009.124.01.124.011.123.011.124.012.123.013.123.014.122.014.123.015.122.016.121.017.122.017.121.018.121.019.121.04.24.021.12.022.12.022.119.024.119.024.118.024.119.078.354.056.234.029.117.06.232.031.116.032.116.032.115.033.115.034.115.034.114.035.114.036.114.037.114.037.113.038.113.038.112.039.112.04.112.082.224.042.111.042.11.044.111.088.22.045.109.046.11.047.108.047.109.047.108.049.108.098.214.102.214.051.106.052.106.053.105.054.106.054.104.055.105.055.104.056.103.056.104.058.103.116.204.059.103.12.202.061.101.061.1.062.1.063.1.063.099.064.099.064.098.065.098.066.098.132.194.068.096.067.096.069.096.069.095.069.094.071.095.07.094.071.093.144.186.073.092.074.092.148.182.075.09.076.09.076.089.154.178.077.088.079.088.078.087.08.087.079.086.081.085.081.086.162.168.166.168.083.083.168.164.17.162.172.16.174.158.087.078.088.078.089.077.178.152.09.076.182.15.091.074.091.073.093.073.092.072.093.072.188.142.094.07.094.069.096.069.095.069.097.068.192.134.097.066.098.066.196.128.099.065.2.126.099.062.1.061.101.061.101.06.102.059.102.06.102.058.103.058.102.057.312.168.104.054.21.108.105.053.107.052.106.052.106.051.214.1.107.048.108.049.109.048.108.047.218.092.109.045.11.045.111.044.11.043.222.084.111.041.112.041.112.04.112.039.112.038.114.038.113.038.114.036.113.036.114.035.115.035.114.033.115.033.116.033.115.031.116.031.117.031.232.058.118.028.117.028.117.027.119.026.117.025.119.025.118.024.12.023.238.044.24.042.121.019.12.019.121.018.121.017.122.017.122.016.121.015.246.028.122.013.124.012.123.012.123.01.125.01.124.009.124.008.125.008.125.007.125.006.126.005.252.008.127.003.126.002.127.001h.254l.128-.001.126-.002.127-.003.126-.004.125-.004.126-.005.125-.006.125-.007.125-.008.125-.008.123-.009.125-.01.124-.01.123-.012.123-.012.123-.013.122-.014.123-.014.121-.015.122-.016.122-.017.121-.017.121-.018.121-.019.12-.019.12-.021.12-.021.119-.022.12-.022.119-.023.119-.024.118-.025.118-.025.118-.026.118-.027.117-.028.117-.028.117-.029.116-.029.116-.031.116-.031.115-.031.116-.033.115-.033.114-.033.115-.035.114-.035.114-.036.113-.036.114-.038.113-.038.112-.038.112-.039.113-.04.111-.041.111-.041.112-.042.111-.042.11-.043.11-.044.11-.045.109-.045.109-.046.109-.046.109-.047.108-.048.108-.049.107-.048.108-.05.106-.05.106-.051.107-.052.106-.052.105-.053.105-.054.105-.054.104-.054.105-.056.103-.056.104-.056.103-.057.102-.058.102-.058.102-.06.102-.059.101-.06.101-.061.1-.061.1-.062.1-.063.099-.063.099-.065.098-.064.098-.064.098-.066.097-.066.096-.067.097-.067.096-.068.096-.069.095-.069.094-.069.095-.07.093-.071.094-.071.093-.072.093-.072.092-.073.091-.073.092-.074.091-.075.09-.075.09-.076.089-.076.089-.076.089-.077.088-.078.087-.078.088-.079.086-.079.087-.08.085-.08.086-.081.084-.081.084-.082.084-.083.083-.082.083-.084.083-.083.082-.085.081-.084.081-.086.08-.085.08-.087.079-.086.079-.087.078-.088.078-.088.077-.089.076-.088.077-.09.075-.09.075-.09.074-.091.075-.091.073-.092.073-.092.072-.093.072-.093.071-.093.071-.094.07-.094.07-.095.068-.095.069-.096.068-.096.067-.096.067-.097.066-.097.065-.098.065-.098.065-.098.064-.099.063-.099.062-.1.062-.1.062-.1.061-.101.06-.101.059-.101.059-.102.059-.103.058-.102.057-.103.056-.104.056-.103.056-.104.054-.105.054-.104.054-.106.053-.105.052-.106.051-.106.052-.107.05-.107.049-.107.05-.107.048-.108.048-.108.047-.109.046-.108.046-.11.045-.109.045-.11.044-.11.043-.111.042-.11.042-.111.041-.112.041-.111.04-.113.039-.112.039-.112.037-.113.038-.113.036-.114.036-.114.035-.114.034-.114.034-.115.033-.115.033-.115.031-.116.031-.116.031-.116.029-.116.029-.117.028-.117.028-.118.027-.117.026-.118.025-.118.025-.119.024-.118.023-.119.022-.119.022-.12.021-.12.021-.12.019-.12.019-.121.018-.121.017-.121.017-.122.016-.121.015-.122.014-.123.014-.122.013-.123.012-.123.011-.123.011-.124.01-.124.009-.124.008-.125.008-.125.007-.125.005-.125.006-.125.004-.126.004-.126.002-.127.002-.127.002-.127v-.254l-.002-.127-.002-.127-.002-.126-.004-.126-.004-.126-.006-.126-.005-.125-.007-.125-.008-.125-.008-.124-.009-.124-.01-.124-.011-.124-.011-.123-.012-.123-.013-.123-.014-.123-.014-.122-.015-.122-.016-.122-.017-.121-.017-.122-.018-.121-.019-.12-.019-.121-.021-.12-.021-.119-.022-.12-.022-.119-.023-.119-.024-.119-.025-.119-.025-.118-.026-.117-.027-.118-.028-.118-.028-.116-.029-.117-.029-.117-.031-.116-.031-.116-.031-.115-.033-.116-.033-.114-.033-.115-.035-.115-.035-.114-.036-.114-.036-.113-.038-.113-.037-.113-.039-.113-.039-.112-.04-.112-.041-.112-.041-.111-.042-.111-.042-.111-.043-.11-.044-.111-.045-.109-.045-.11-.046-.109-.046-.109-.047-.108-.048-.109-.048-.107-.05-.108-.049-.107-.05-.107-.051-.106-.052-.107-.052-.106-.053-.105-.054-.105-.054-.105-.054-.104-.056-.104-.056-.104-.056-.103-.058-.103-.057-.103-.059-.102-.059-.102-.059-.101-.061-.102-.06-.1-.062-.101-.062-.1-.062-.099-.064-.1-.063-.098-.065-.098-.065-.099-.065-.097-.066-.097-.067-.097-.067-.097-.068-.096-.069-.095-.069-.095-.069-.095-.07-.094-.071-.094-.071-.094-.072-.093-.072-.092-.073-.092-.073-.092-.075-.092-.074-.09-.075-.09-.075-.09-.077-.09-.076-.089-.077-.088-.078-.089-.078-.087-.079-.087-.079-.087-.08-.086-.08-.086-.081-.085-.081-.085-.082-.084-.083-.084-.083-.083-.082-.083-.084-.082-.085-.082-.085-.082-.085-.08-.085-.08-.087-.08-.087-.08-.087-.078-.087-.078-.088-.078-.088-.077-.09-.077-.09-.076-.089-.076-.09-.075-.091-.074-.091-.074-.092-.074-.092-.073-.093-.072-.093-.072-.094-.071-.093-.07-.095-.071-.095-.069-.094-.069-.096-.068-.096-.069-.096-.067-.097-.066-.098-.067-.097-.065-.098-.065-.098-.064-.099-.064-.099-.063-.1-.063-.1-.062-.101-.062-.1-.06-.101-.06-.102-.06-.102-.059-.102-.058-.102-.058-.104-.058-.103-.056-.103-.056-.105-.055-.104-.055-.105-.054-.105-.054-.105-.053-.106-.052-.106-.051-.107-.051-.107-.051-.107-.049-.107-.049-.108-.049-.108-.047-.109-.047-.109-.047-.109-.046-.109-.045-.11-.044-.11-.044-.11-.043-.111-.043-.111-.042-.112-.041-.112-.041-.111-.039-.113-.04-.113-.038-.112-.038-.114-.037-.113-.037-.114-.036-.114-.035-.114-.034-.115-.034-.115-.033-.115-.032-.116-.032-.116-.031-.116-.03-.116-.03-.118-.029-.116-.028-.117-.027-.118-.027-.118-.026-.118-.026-.118-.024-.119-.024-.119-.023-.12-.023-.119-.022-.12-.021-.12-.02-.12-.02-.121-.019-.121-.018-.121-.017-.121-.017-.122-.016-.123-.015-.122-.014-.122-.014-.123-.013-.123-.012-.123-.011-.125-.011-.123-.01-.124-.009-.125-.008-.124-.007-.126-.007-.125-.006-.125-.005-.126-.005-.127-.003-.126-.003-.126-.002-.127-.001-.128-.001-.128.001z" fill="#477fff"/><path d="M108.727-.001l1.396.015 1.396.029.349.011.346.011.349.015.345.015.349.014.345.015.691.037.349.018.345.018.346.023.341.022.346.025.345.022.342.026.345.029.342.026.345.03.342.029.341.033.346.029.341.033.342.037.338.033.683.074.342.04.338.037.341.04.338.044.338.041.676.088 1.352.191.338.051.335.048.338.055.334.052.669.11.337.055.335.055.33.059.335.059.334.062.334.059.331.062.334.063 1.323.264.33.07.331.066.331.074.327.07.33.073.327.07.331.077.327.073.981.232.654.162.323.08.327.081.97.254.327.084.323.088.32.088.646.177.32.092.323.092.32.091 1.278.382.32.1.316.095.319.099.316.103.32.099.632.206.316.107.316.103.312.106.316.107.312.11.316.106.312.111.313.113.312.111.312.114.312.11.309.117.312.114.309.118.312.117.617.235.618.243.305.121.308.121.61.25.309.125.304.125.302.129.61.257.301.128.305.133.903.396.603.272.298.136.301.136 1.488.698.297.143.294.144.298.143.294.147.293.143.294.147.294.151.294.147.29.15.294.147.29.151.291.154.29.151.58.308.287.155.29.158 1.146.631.287.162.283.162.286.161.283.162.283.165.283.162.566.331.279.169.283.169.279.165.279.173.559.338.279.172.551.346.279.176.276.176.275.173.272.176.276.18.271.177.276.18.544.36.268.183.272.18.272.184.536.367.536.375.268.184.265.191.268.187.265.188.529.382.26.191.265.194.261.191.264.195.522.39.257.198.261.195.257.198.261.198.257.199.257.202.254.202.257.198.253.202.258.206.253.202.254.206.249.206.254.205.25.206.253.209.25.206.246.21.25.209.25.213.246.209.984.853.243.213.246.217.485.433.239.217.242.22.239.217.243.22.477.441.235.224.239.221.705.672.236.228.235.224.925.911.46.459.227.232.232.231.228.232.224.235.227.231.673.706.224.238.224.235 1.102 1.194 1.084 1.213.213.246.217.242.426.493.209.246.213.25.21.246.628.749.206.25.209.25.206.253.202.254.411.507.404.507.202.257.199.257.202.257.595.772.198.26.974 1.305.382.529.191.261.191.268.191.264.187.265.188.268.187.264.188.269.367.536.184.272.183.268.184.272.72 1.087.18.276.176.272.353.551.173.275.176.276.173.275.172.28.173.275.169.279.173.279.169.28.169.283.165.279.169.283.165.279.331.566.162.282.165.287.162.283.161.286.158.283.162.287.316.573.154.29.158.287.154.29.155.287.308.58.151.29.15.294.151.29.147.294.151.29.441.882.143.298.286.587.287.596.419.892.136.298.136.301.139.301.132.298.136.301.265.603.132.305.132.301.129.301.386.915.374.915.125.308.122.305.124.309.118.308.121.305.121.313.236.617.113.308.118.313.114.308.114.312.11.313.114.312.22.625.111.315.106.313.213.632.107.312.205.632.103.319.103.316.099.316.1.32.099.316.095.319.099.32.096.32.092.319.095.32.092.323.092.32.092.323.088.32.092.323.088.323.085.324.088.323.169.646.081.327.084.324.162.654.077.323.231.981.077.33.147.654.07.331.074.331.069.327.07.33.066.331.07.33.066.331.063.331.066.334.062.331.063.334.062.331.177 1.003.055.334.058.334.056.334.051.335.055.338.052.334.051.338.048.334.051.338.048.338.044.338.048.338.132 1.014.04.342.041.338.04.342.037.338.11 1.025.099 1.024.059.684.03.345.029.342.026.345.025.342.026.345.088 1.381.037.691.015.345.018.349.015.346.011.349.014.345.022.698.008.345.011.349.007.349.004.349.007.349.008.702v1.4l-.004.349-.004.349-.007.349-.004.349-.007.349-.011.349-.008.349-.011.349-.011.345-.014.349-.011.346-.015.349-.018.345-.015.345-.018.346-.019.349-.022.345-.022.345-.022.342-.022.345-.026.345-.025.346-.026.341-.029.346-.03.341-.029.342-.03.342-.033.345-.033.342-.033.341-.037.338-.036.342-.037.342-.037.341-.04.338-.041.342-.04.338-.044.338-.044.338-.044.342-.048.338-.044.334-.048.338-.051.338-.048.338-.051.334-.052.338-.055.334-.051.335-.056.338-.058.334-.055.334-.059.335-.059.33-.059.335-.062.334-.063.331-.062.334-.066.331-.063.33-.066.331-.07.33-.066.331-.07.331-.069.33-.074.327-.07.331-.073.327-.074.331-.077.326-.077.327-.077.327-.077.327-.077.327-.081.327-.081.324-.084.327-.081.323-.085.323-.084.327-.088.323-.085.324-.088.319-.092.324-.088.323-.092.319-.092.324-.092.319-.095.32-.092.32-.096.319-.099.32-.095.319-.099.32-.1.316-.099.316-.103.32-.103.316-.102.315-.103.316-.107.316-.106.313-.107.316-.106.315-.111.313-.11.312-.11.312-.114.313-.11.312-.114.312-.114.312-.118.309-.113.309-.118.312-.118.308-.121.309-.121.309-.118.308-.124.305-.122.309-.125.305-.125.305-.124.308-.125.305-.129.305-.128.301-.129.305-.129.301-.132.305-.132.302-.132.301-.133.301-.136.301-.132.302-.139.297-.136.301-.136.298-.14.297-.139.302-.14.294-.143.297-.144.298-.143.294-.143.297-.143.294-.147.294-.147.294-.147.294-.151.294-.147.29-.151.294-.15.29-.151.29-.154.291-.154.29-.155.29-.154.287-.158.29-.154.286-.158.287-.158.286-.162.287-.158.287-.161.282-.162.287-.165.283-.162.283-.165.283-.166.282-.165.283-.169.28-.165.282-.169.28-.169.279-.173.279-.169.279-.173.279-.172.276-.173.275-.176.28-.173.275-.176.276-.177.272-.176.275-.18.272-.18.276-.18.271-.18.272-.18.268-.184.272-.183.272-.184.268-.184.268-.183.269-.188.268-.187.268-.188.265-.187.268-.191.264-.191.265-.191.264-.191.265-.191.261-.195.264-.194.261-.195.261-.195.261-.195.26-.198.258-.198.26-.199.258-.198.257-.202.257-.199.257-.202.254-.202.257-.202.253-.205.254-.206.253-.202.25-.206.253-.209.25-.206.254-.209.25-.21.249-.209.247-.21.249-.213.247-.209.246-.213.246-.213.246-.217.246-.213.243-.217.246-.217.242-.216.243-.217.238-.217.243-.22.239-.221.242-.22.239-.221.239-.22.235-.224.239-.224.235-.224.235-.224.235-.225.235-.227.235-.224.232-.228.231-.232.232-.227.231-.228.231-.232.228-.231.232-.231.227-.232.228-.231.224-.235.228-.236.224-.235.224-.235.224-.235.224-.239.225-.235.22-.239.22-.238.221-.243.22-.239.221-.242.216-.239.221-.242.217-.243.213-.246.216-.243.217-.246.213-.246.213-.246.213-.246.21-.246.213-.25.209-.25.21-.246.209-.25.209-.253.206-.25.21-.254.205-.249.206-.254.202-.253.206-.258.202-.253.202-.257.202-.254.202-.257.198-.257.199-.261.198-.257.199-.261.198-.257.195-.261.194-.261.195-.264.195-.261.195-.265.191-.26.191-.265.191-.264.191-.265.191-.268.187-.265.187-.268.188-.268.187-.268.184-.268.184-.268.183-.272.184-.272.184-.268.18-.272.18-.272.18-.276.18-.271.18-.276.176-.272.176-.275.177-.276.176-.279.173-.276.172-.275.173-.279.173-.28.172-.279.169-.279.169-.279.169-.283.169-.279.166-.283.165-.283.165-.283.166-.283.161-.283.166-.286.161-.283.162-.287.158-.286.161-.287.158-.286.158-.287.158-.29.155-.287.154-.29.154-.29.155-.29.154-.291.15-.29.151-.294.151-.29.15-.294.147-.294.147-.294.147-.293.147-.294.143-.298.144-.294.143-.297.143-.298.143-.298.14-.297.14-.298.139-.297.136-.301.14-.298.136-.301.132-.302.136-.301.132-.301.132-.301.133-.305.132-.301.129-.305.128-.305.129-.302.128-.304.125-.309.125-.305.125-.305.125-.308.121-.305.125-.309.121-.309.118-.308.121-.309.118-.312.117-.309.114-.312.118-.309.114-.312.113-.312.114-.312.11-.313.111-.312.11-.316.11-.312.107-.316.106-.312.107-.316.106-.316.103-.316.103-.316.103-.32.103-.316.099-.319.099-.316.099-.32.096-.319.099-.32.096-.32.095-.319.092-.32.092-.323.092-.32.091-.323.092-.323.088-.32.089-.323.084-.327.088-.323.085-.324.084-.323.081-.327.085-.323.08-.327.081-.327.077-.327.078-.327.08-.327.074-.327.077-.331.073-.327.074-.33.073-.327.07-.331.07-.331.07-.33.066-.331.07-.33.066-.331.062-.331.066-.334.063-.331.062-.334.063-.334.059-.335.058-.33.059-.335.059-.337.055-.335.055-.334.052-.334.055-.338.051-.335.052-.338.047-.338.052-.338.047-.338.048-.338.044-.338.044-.338.044-.338.045-.338.04-.341.04-.338.041-.342.037-.342.036-.341.037-.338.037-.342.033-.341.033-.346.033-.341.029-.342.03-.345.029-.342.03-.345.025-.342.026-.345.026-.346.022-.341.022-.346.022-.345.022-.349.018-.345.019-.346.014-.345.019-.349.014-.345.015-.349.011-.346.011-.349.011-.349.011-.349.007-.349.008-.349.003-.349.008-.349.003-.349.004H107.673l-.349-.004-.349-.003-.349-.008-.349-.003-.349-.008-.349-.007-.349-.011-.346-.011-.349-.011-.345-.011-.349-.015-.345-.014-.349-.019-.346-.014-.345-.019-.345-.018-.345-.022-.346-.022-.345-.022-.345-.022-.346-.026-.341-.026-.346-.025-.341-.03-.346-.029-.341-.03-.342-.029-.342-.033-.341-.033-.342-.033-.342-.037-.341-.037-.342-.036-.338-.037-.342-.041-.338-.04-.341-.04-.338-.045-.338-.044-.338-.044-.338-.044-.338-.048-.338-.047-.338-.052-.335-.047-.338-.052-.334-.051-.338-.055-.334-.052-.334-.055-.335-.055-.334-.059-.334-.059-.335-.058-.334-.059-.331-.063-.334-.062-.331-.063-.334-.066-.33-.062-.331-.066-.331-.07-.33-.066-.331-.07-.331-.07-.327-.07-.33-.073-.327-.074-.327-.073-.331-.077-.327-.074-.327-.08-.327-.078-.327-.077-.323-.081-.327-.08-.323-.085-.327-.081-.323-.084-.324-.085-.323-.088-.323-.084-.324-.089-.323-.088-.32-.092-.323-.091-.319-.092-.324-.092-.319-.092-.32-.095-.32-.096-.319-.099-.32-.096-.316-.099-.319-.099-.316-.099-.316-.103-.32-.103-.316-.103-.316-.103-.312-.106-.316-.107-.316-.106-.312-.107-.316-.11-.312-.11-.313-.111-.312-.11-.312-.114-.312-.113-.309-.114-.312-.118-.309-.114-.308-.117-.313-.118-.308-.121-.305-.118-.309-.121-.308-.125-.305-.121-.309-.125-.305-.125-.305-.125-.305-.125-.305-.128-.305-.129-.304-.128-.302-.129-.305-.132-.301-.133-.301-.132-.301-.132-.302-.136-.301-.132-.297-.136-.302-.14-.297-.136-.298-.139-.297-.14-.298-.14-.298-.143-.297-.143-.294-.143-.294-.144-.297-.143-.294-.147-.294-.147-.294-.147-.29-.147-.294-.15-.291-.151-.293-.151-.291-.15-.29-.154-.29-.155-.287-.154-.29-.154-.286-.155-.291-.158-.286-.158-.287-.158-.286-.161-.287-.158-.283-.162-.286-.161-.283-.166-.283-.161-.283-.166-.283-.165-.283-.165-.279-.166-.279-.169-.283-.169-.279-.169-.279-.169-.28-.172-.275-.173-.279-.173-.276-.172-.275-.173-.276-.176-.275-.177-.276-.176-.275-.176-.272-.18-.272-.18-.272-.18-.272-.18-.272-.18-.272-.184-.268-.184-.272-.183-.268-.184-.268-.184-.268-.187-.265-.188-.268-.187-.264-.187-.269-.191-.264-.191-.261-.191-.264-.191-.265-.191-.261-.195-.261-.195-.26-.195-.261-.194-.261-.195-.261-.198-.257-.199-.257-.198-.257-.199-.258-.198-.257-.202-.257-.202-.253-.202-.254-.202-.253-.206-.254-.202-.253-.206-.254-.205-.25-.21-.249-.206-.25-.209-.25-.209-.25-.21-.246-.209-.25-.213-.246-.21-.246-.213-.246-.213-.243-.213-.246-.217-.242-.216-.243-.213-.242-.217-.243-.221-.242-.216-.239-.221-.239-.22-.239-.221-.238-.22-.239-.22-.235-.225-.239-.224-.235-.224-.235-.224-.235-.224-.232-.228-.235-.224-.231-.228-.232-.227-.231-.232-.228-.228-.232-.231-.227-.231-.228-.232-.228-.231-.228-.232-.227-.235-.224-.235-.225-.235-.224-.235-.224-.235-.22-.239-.224-.235-.221-.239-.22-.239-.221-.242-.216-.239-.221-.243-.217-.238-.216-.243-.217-.242-.217-.246-.213-.243-.213-.246-.217-.246-.209-.246-.213-.246-.213-.247-.21-.249-.209-.247-.209-.249-.206-.25-.21-.254-.205-.25-.206-.253-.206-.25-.205-.253-.203-.254-.205-.253-.202-.257-.202-.254-.199-.257-.202-.257-.198-.257-.199-.258-.198-.26-.195-.258-.198-.26-.195-.261-.194-.261-.195-.261-.191-.264-.195-.261-.191-.265-.191-.264-.191-.265-.187-.264-.191-.268-.188-.265-.187-.268-.184-.268-.187-.269-.184-.268-.184-.268-.183-.272-.18-.272-.184-.268-.18-.272-.18-.271-.18-.276-.176-.272-.18-.275-.177-.272-.176-.276-.173-.275-.176-.28-.173-.275-.172-.276-.173-.279-.169-.279-.173-.279-.169-.279-.165-.28-.169-.282-.169-.28-.165-.283-.166-.282-.165-.283-.162-.283-.161-.283-.162-.287-.161-.282-.162-.287-.158-.287-.162-.286-.154-.287-.158-.286-.158-.29-.154-.287-.155-.29-.154-.29-.15-.291-.155-.29-.15-.29-.151-.294-.147-.29-.151-.294-.147-.294-.146-.294-.144-.294-.147-.294-.143-.297-.143-.294-.144-.298-.139-.297-.14-.294-.143-.302-.136-.297-.14-.298-.135-.301-.136-.297-.136-.302-.136-.301-.133-.301-.132-.301-.132-.302-.132-.305-.129-.301-.128-.305-.129-.301-.129-.305-.125-.305-.124-.308-.125-.305-.125-.305-.121-.309-.122-.305-.121-.308-.121-.309-.118-.309-.117-.308-.118-.312-.117-.309-.114-.309-.118-.312-.11-.312-.114-.312-.114-.313-.11-.312-.11-.312-.107-.313-.11-.315-.107-.316-.106-.313-.103-.316-.106-.316-.103-.315-.103-.316-.099-.32-.103-.316-.099-.316-.096-.32-.099-.319-.096-.32-.095-.319-.096-.32-.095-.32-.092-.319-.092-.324-.092-.319-.088-.323-.088-.324-.088-.319-.088-.324-.085-.323-.088-.327-.081-.323-.084-.323-.081-.327-.085-.324-.077-.327-.081-.327-.077-.327-.077-.327-.077-.327-.074-.326-.077-.331-.073-.327-.07-.331-.074-.327-.069-.33-.07-.331-.066-.331-.066-.33-.067-.331-.066-.33-.066-.331-.062-.334-.063-.331-.058-.334-.063-.335-.059-.33-.058-.335-.056-.334-.055-.334-.055-.338-.055-.335-.055-.334-.051-.338-.052-.334-.048-.338-.047-.338-.048-.338-.048-.334-.048-.338-.044-.342-.044-.338-.04-.338-.044-.338-.041-.342-.036-.338-.041-.341-.037-.342-.036-.342-.033-.338-.037-.341-.033-.342-.03-.345-.033-.342-.029-.342-.029-.341-.026-.346-.03-.341-.025-.346-.022-.345-.026-.345-.022-.342-.022-.345-.018-.345-.023-.349-.014-.346-.019-.345-.014-.345-.015-.349-.015-.346-.014-.349-.011-.345-.011-.349-.008-.349-.007-.349-.007-.349-.008-.349-.003-.349-.008-.349v-.349L0 108.727v-.702l.003-.349v-.353l.008-.349.003-.349.008-.349.007-.349.007-.349.008-.345.011-.349.011-.349.014-.345.015-.349.015-.346.014-.349.019-.345.014-.345.023-.346.018-.345.022-.345.022-.346.026-.345.022-.345.025-.342.03-.345.026-.342.029-.345.029-.342.033-.342.03-.341.033-.342.037-.341.033-.342.036-.342.037-.341.041-.338.036-.342.041-.338.044-.342.04-.338.044-.338.044-.338.048-.338.048-.338.048-.338.047-.338.048-.334.052-.338.051-.334.055-.338.055-.335.055-.334.055-.334.056-.334.058-.335.059-.334.063-.334.058-.331.063-.334.062-.331.066-.334.066-.331.067-.331.066-.33.066-.331.07-.33.069-.327.074-.331.07-.331.073-.327.077-.327.074-.33.077-.327.077-.327.077-.327.081-.323.077-.327.085-.327.081-.324.084-.327.081-.323.088-.323.085-.323.088-.324.088-.323.088-.323.088-.32.092-.323.092-.32.092-.323.095-.32.096-.319.095-.32.096-.32.099-.319.096-.316.099-.32.103-.316.099-.316.103-.319.103-.316.106-.316.103-.312.106-.316.107-.316.11-.313.107-.315.11-.313.11-.312.114-.312.114-.313.11-.312.118-.308.114-.313.117-.308.118-.309.117-.308.118-.313.121-.305.121-.308.122-.309.121-.305.125-.308.125-.305.124-.305.125-.305.129-.305.129-.305.128-.305.129-.301.132-.301.132-.305.132-.302.133-.301.136-.301.136-.298.136-.301.135-.301.14-.298.136-.297.143-.298.14-.297.139-.298.144-.298.143-.293.143-.294.147-.298.144-.294.146-.294.147-.294.151-.29.147-.294.151-.29.15-.294.155-.29.15-.29.154-.29.155-.287.154-.29.158-.287.158-.29.154-.287.162-.286.158-.287.162-.283.161-.286.162-.283.161-.287.162-.282.165-.283.166-.283.165-.279.169-.283.169-.279.165-.283.169-.28.173-.279.169-.279.173-.275.172-.28.173-.275.176-.276.173-.275.176-.276.177-.275.18-.272.176-.276.18-.272.18-.271.18-.272.184-.272.18-.272.183-.268.184-.272.184-.268.187-.268.184-.269.187-.264.188-.268.191-.265.187-.264.191-.268.191-.261.191-.265.195-.264.191-.261.195-.261.194-.261.195-.261.198-.261.195-.26.198-.258.199-.257.198-.257.202-.257.199-.257.202-.257.202-.254.205-.253.203-.254.205-.253.206-.254.206-.253.205-.25.21-.25.206-.25.209-.249.209-.25.21-.246.213-.25.213-.246.209-.247.217-.246.213-.242.213-.246.217-.243.217-.242.216-.243.217-.242.221-.243.216-.238.221-.239.22-.239.221-.239.224-.239.22-.235.224-.238.224-.236.225-.235.224-.235.227-.231.228-.235.228-.232.228-.231.227-.232.232-.228.228-.231.231-.228.232-.228.231-.227.235-.228.232-.224.235-.228.235-.224.235-.224.239-.224.235-.221.239-.224.238-.22.239-.221.239-.22.239-.217.242-.22.243-.217.242-.217.243-.216.242-.217.246-.213.243-.213.246-.213.246-.213.246-.214.25-.209.246-.213.25-.209.25-.21.25-.206.249-.209.25-.206.254-.205.253-.206.254-.206.253-.202.254-.206.253-.202.257-.198.257-.202.258-.202.257-.199.257-.198.257-.198.261-.195.261-.198.261-.195.26-.195.261-.195.261-.191.265-.194.264-.191.261-.191.264-.191.269-.188.264-.187.268-.191.265-.184.268-.187.268-.188.268-.183.272-.184.268-.184.272-.18.272-.183.272-.18.272-.18.272-.18.272-.177.275-.18.276-.176.275-.173.276-.176.275-.176.276-.173.279-.173.275-.172.28-.169.279-.169.279-.173.283-.165.279-.169.279-.169.283-.166.283-.165.283-.162.283-.165.283-.162.286-.161.283-.162.287-.162.286-.157.287-.158.286-.158.291-.158.286-.158.29-.155.287-.154.29-.154.29-.151.291-.154.293-.151.291-.147.294-.15.29-.147.294-.151.294-.147.294-.143.297-.147.294-.143.294-.144.297-.143.298-.14.298-.139.297-.14.298-.139.297-.14.302-.136.297-.136.301-.136.302-.136.301-.132.301-.132.301-.132.305-.133.302-.128.304-.129.305-.128.305-.129.305-.125.305-.125.305-.125.309-.125.305-.121.308-.121.309-.121.305-.122.308-.117.313-.118.308-.117.309-.118.312-.114.309-.117.312-.11.312-.114.312-.111.313-.113.312-.111.316-.106.312-.11.316-.107.316-.106.312-.103.316-.107.316-.103.32-.103.316-.099.316-.103.319-.099.316-.095.32-.1.319-.095.32-.096.32-.095.319-.096.324-.091.319-.092.323-.092.32-.088.323-.089.324-.088.323-.088.323-.084.324-.085.323-.084.327-.085.323-.081.327-.08.323-.081.327-.081.327-.077.327-.077.327-.078.331-.073.327-.077.327-.07.33-.073.327-.07.331-.074.331-.066.33-.07.331-.066.331-.066.33-.066.334-.066.331-.063.334-.062.331-.059.334-.062.335-.059.334-.059.334-.055.335-.055.334-.055.334-.055.338-.052.334-.055.338-.048.335-.051.338-.048.338-.048.338-.047.338-.048.338-.044.338-.044.338-.041.341-.044.338-.04.342-.037.338-.04.342-.037.341-.037.342-.033.342-.037.341-.033.342-.029.342-.033L99.01.4l.346-.03.341-.026.346-.029.341-.026.346-.022.345-.025.345-.022.346-.023.345-.018.345-.018.345-.019.346-.018.349-.015.345-.014.349-.015.345-.015.349-.011.346-.011.349-.007.349-.008.349-.007.349-.007.349-.004.349-.004.349-.003.353-.004h.701zm-.617 27.002h-.264l-.265.004-.264.003-.261.004-.265.004-.264.003-.261.008-.265.007-.261.007-.264.008-.261.011-.261.011-.261.011-.26.011-.261.015-.261.011-.261.014-.261.015-.261.018-.257.015-.261.018-.257.019-.261.022-.257.018-.261.022-.257.022-.257.022-.257.022-.257.026-.257.022-.257.026-.258.029-.253.026-.257.029-.254.03-.257.029-.253.029-.258.03-.253.033-.254.033-.253.033-.254.033-.253.037-.254.037-.253.036-.254.037-.253.037-.25.04-.253.041-.25.04-.25.04-.253.041-.25.044-.25.044-.25.044-.25.044-.249.048-.25.044-.25.048-.246.048-.25.051-.25.048-.246.051-.246.052-.25.051-.246.051-.246.056-.246.055-.247.051-.246.059-.246.055-.246.055-.242.059-.247.059-.242.058-.246.063-.243.059-.246.062-.242.063-.243.062-.242.063-.243.066-.242.066-.239.066-.242.066-.243.066-.239.066-.242.07-.239.07-.239.07-.242.073-.239.07-.239.073-.239.074-.238.073-.235.074-.239.073-.239.077-.235.078-.239.077-.235.077-.235.081-.239.077-.235.081-.235.081-.235.08-.232.085-.235.081-.235.084-.231.085-.236.084-.231.088-.235.085-.232.088-.231.088-.231.088-.232.088-.231.092-.228.089-.232.091-.231.092-.228.092-.231.096-.228.091-.228.096-.228.095-.227.096-.228.099-.228.096-.228.099-.224.099-.227.099-.225.099-.227.1-.224.102-.225.103-.224.103-.224.103-.224.103-.224.106-.224.103-.22.107-.225.106-.22.107-.22.11-.224.107-.221.11-.22.11-.217.11-.221.114-.22.11-.22.114-.217.114-.217.114-.22.114-.217.114-.217.117-.217.114-.216.118-.217.117-.213.118-.217.121-.213.118-.217.121-.213.121-.213.121-.213.122-.213.125-.213.125-.209.121-.214.125-.209.125-.213.128-.209.125-.21.129-.209.128-.21.129-.209.128-.209.129-.206.129-.21.132-.205.132-.206.132-.209.133-.206.132-.206.136-.202.132-.206.136-.205.136-.202.136-.203.136-.205.139-.202.14-.202.136-.202.139-.202.14-.199.143-.202.14-.198.143-.199.14-.202.143-.198.143-.198.147-.195.144-.199.147-.198.143-.195.147-.194.147-.199.147-.194.15-.195.147-.195.151-.191.15-.195.151-.191.151-.194.15-.191.151-.191.154-.191.155-.191.154-.192.154-.187.154-.191.155-.187.158-.188.154-.187.158-.187.158-.188.158-.187.158-.184.162-.187.157-.184.162-.184.162-.183.161-.184.162-.184.162-.18.165-.183.162-.18.165-.18.165-.184.166-.18.165-.176.169-.18.165-.18.169-.177.166-.176.169-.176.169-.177.169-.176.172-.176.169-.177.173-.172.173-.173.169-.176.176-.173.173-.169.172-.173.173-.172.176-.169.177-.173.176-.169.176-.169.177-.169.176-.165.176-.169.18-.169.18-.166.18-.165.18-.165.18-.166.18-.165.18-.162.184-.165.18-.162.184-.161.183-.162.184-.161.184-.162.183-.158.188-.162.183-.158.188-.158.187-.158.188-.158.187-.154.187-.158.188-.154.191-.154.191-.158.187-.151.191-.154.191-.155.191-.15.191-.151.195-.154.191-.147.195-.151.191-.15.194-.147.195-.151.195-.147.198-.147.195-.147.195-.147.198-.143.198-.143.195-.147.198-.144.199-.143.202-.139.198-.144.199-.139.202-.144.202-.139.198-.14.202-.136.202-.139.202-.14.206-.136.202-.136.202-.136.206-.136.206-.132.202-.136.205-.132.206-.132.21-.133.205-.132.206-.132.209-.129.206-.128.21-.132.209-.129.209-.125.21-.129.209-.124.21-.129.213-.125.209-.125.213-.125.21-.121.213-.125.213-.121.213-.121.213-.122.217-.121.213-.117.213-.122.216-.117.217-.118.213-.117.217-.114.217-.118.217-.114.216-.117.221-.114.216-.11.217-.114.221-.11.22-.114.22-.11.217-.111.221-.11.224-.106.22-.111.221-.106.22-.107.224-.106.221-.103.224-.107.224-.103.224-.102.224-.103.224-.103.224-.103.224-.099.228-.099.224-.1.228-.099.224-.099.228-.099.228-.096.227-.095.228-.096.228-.095.228-.092.227-.096.232-.091.228-.092.231-.092.231-.088.228-.092.232-.088.231-.088.232-.089.231-.088.235-.084.232-.088.231-.085.235-.084.232-.085.235-.081.235-.084.235-.081.231-.081.236-.081.238-.077.235-.081.236-.077.235-.077.238-.077.236-.077.238-.074.239-.073.235-.074.239-.073.239-.074.239-.073.238-.07.243-.07.239-.07.239-.069.242-.066.239-.067.242-.069.243-.063.238-.066.243-.066.242-.063.243-.062.242-.062.246-.063.243-.059.242-.062.247-.059.242-.059.246-.058.243-.056.246-.055.246-.058.246-.056.246-.051.246-.055.246-.052.247-.051.249-.051.247-.052.246-.048.25-.051.249-.048.246-.048.25-.044.25-.047.25-.044.25-.045.25-.044.249-.044.25-.04.254-.041.249-.04.25-.04.254-.041.253-.037.25-.036.254-.037.253-.037.254-.036.253-.034.254-.033.253-.033.253-.033.254-.029.257-.029.254-.034.257-.025.253-.03.257-.025.258-.03.253-.025.257-.023.257-.025.258-.022.257-.022.257-.022.261-.022.257-.022.257-.019.261-.018.257-.019.261-.014.257-.019.261-.014.261-.015.261-.011.26-.015.261-.011.261-.011.261-.011.261-.011.261-.007.264-.008.261-.007.264-.007.261-.004.265-.007.264-.004.261v.265l-.004.264v1.058l.004.265v.264l.004.265.007.264.004.261.022.79.007.261.011.261.011.264.022.522.015.261.011.26.015.261.014.257.019.261.014.261.019.257.018.261.019.257.022.261.088 1.029.025.257.023.257.025.257.03.257.025.257.03.254.025.257.034.254.029.257.029.253.033.254.033.257.067.507.073.507.037.25.073.507.041.249.04.254.04.25.041.253.04.25.044.25.044.253.089.5.047.25.044.246.096.5.051.246.048.25.052.246.051.249.103.493.055.246.051.25.056.246.058.242.111.493.058.246.059.242.059.246.062.243.059.246.25.97.132.485.063.242.069.243.067.238.066.243.069.239.07.242.14.478.367 1.194.074.235.154.477.154.471.081.238.077.236.243.705.084.235.081.232.169.47.085.231.088.235.084.232.353.926.092.231.088.231.092.228.183.463.096.228.092.228.095.227.096.232.191.455.099.225.198.455.1.224.099.228.099.224.103.224.103.228.205.448.103.221.107.224.103.224.106.224.213.441.111.224.106.22.331.661.114.221.11.217.114.22.114.217.114.22.227.434.118.216.114.217.352.65.122.214.117.216.485.853.125.213.121.213.125.213.125.209.125.213.129.21.124.209.129.213.125.21.129.209.132.206.257.419.132.205.132.21.397.617.136.206.132.205.136.202.272.412.136.202.279.404.136.202.279.404.144.202.139.199.144.202.139.198.287.397.147.198.143.199.143.194.147.199.147.194.147.199.147.194.151.195.147.195.15.195.147.194.155.191.15.195.301.382.309.382.151.191.158.191.154.188.154.191.158.187.154.187.158.188.158.191.158.183.158.188.162.187.158.184.808.918.165.184.162.18.165.18.166.184.496.54.169.176.165.18.169.176.169.18.338.353.683.698.173.176.173.173.176.173.345.345.177.169.176.173.176.169.173.169.18.169.353.338.18.165.18.169.18.165.176.166.184.165.36.331.183.165.18.162.919.808.187.161.184.158.937.79.187.155.191.157.191.155.188.154.191.154.191.151.191.154.191.151.194.154.191.151.195.15.191.151.195.147.195.151.194.147.199.147.389.293.198.147.195.144.199.147.396.286.202.143.199.144.198.139.202.144.199.139.606.419.202.136.202.14.206.135.202.136.411.272.202.136.412.265.209.136.206.132.205.128.21.133.206.128.209.133.628.385.21.125.209.129.213.125.209.125.214.124.209.125.213.122.213.125.639.363.217.121.213.122.217.117.213.118.65.353.217.113.217.118.22.114.217.114.22.114.217.11.22.114.217.11.662.331.224.106.22.11.22.107.225.106.22.107.224.106.224.103.224.107.448.206.225.099.224.103.227.103.225.099.227.099.224.099.228.096.228.099 1.139.477.231.092.228.092.463.184.228.092.231.088.232.092.462.176.236.084.231.089.231.084.236.085.231.084.47.169.232.081.47.162.239.08.235.081.47.154.239.078.235.077.239.077.239.073.235.078.477.147.239.069.239.074.242.07.478.139.242.07.239.066.243.07.238.066.485.132.485.125.243.066.246.063.242.059.243.062.242.059.493.117.242.059.246.055.246.059.739.165.492.103.246.055.25.048.246.051.25.052.25.048.246.047.5.096 1.249.22.253.041.25.044.25.04.253.037.25.04.253.037.254.041.253.036.254.033.253.037.25.033.257.033.507.066.258.033.253.03.257.029.254.03.257.025.253.03.772.077.257.022.257.026.514.044.261.018.257.022.258.018.521.037.257.019 1.044.058.261.011.26.015.261.011.261.007.261.011.264.008.261.011.265.004.525.014.79.011h.265l.264.004h.529l.265-.004h.264l.265-.003.264-.004.261-.004.264-.007.265-.007.261-.004.264-.011.261-.008.261-.011.261-.007.264-.011.261-.015.261-.011.257-.014.261-.015.261-.015.261-.014.26-.019.258-.018.26-.019.258-.018.257-.022.261-.018.257-.022.257-.022.257-.026.257-.022.257-.026.258-.026.257-.025.257-.03.253-.025.258-.03.253-.029.257-.03.254-.033.253-.033.257-.033.254-.033.253-.033.25-.037.257-.033.25-.036.254-.041.253-.037.25-.04.253-.037.25-.04.254-.044.249-.041.25-.044.254-.044.25-.044.249-.044.247-.044.249-.048.25-.048.25-.047.246-.048.25-.052.246-.051.25-.048.246-.055.246-.051.246-.052.25-.055.246-.055.243-.055.246-.059.246-.055.246-.059.243-.058.246-.059.242-.059.243-.062.246-.059.242-.063.243-.066.242-.062.243-.063.242-.066.243-.066.238-.066.243-.07.239-.066.242-.07.243-.07.238-.069.239-.07.239-.074.239-.069.239-.074.238-.073.239-.078.235-.073.239-.077.239-.077.235-.078.235-.077.239-.077.235-.081.235-.08.235-.081.235-.081.236-.081.231-.084.235-.085.235-.084.232-.085.235-.084.231-.089.232-.084.231-.088.232-.088.231-.092.231-.088.232-.092.228-.092.231-.092.232-.092.227-.092.228-.095.228-.096.231-.095.228-.096.224-.095.228-.099.228-.096.227-.099.225-.099.227-.099.224-.103.225-.103.224-.099.227-.103.221-.103.224-.107.224-.103.224-.106.224-.107.221-.106.22-.107.224-.11.221-.106.22-.111.22-.11.221-.11.22-.11.217-.114.22-.11.217-.114.221-.114.216-.114.217-.118.217-.113.217-.118.216-.118.217-.117.217-.118.213-.117.217-.122.213-.121.213-.121.213-.121.213-.121.213-.122.213-.125.213-.125.21-.124.213-.125.209-.125.21-.129.209-.125.213-.128.209-.129.206-.128.21-.133.209-.128.206-.133.205-.128.21-.132.206-.136.205-.133.206-.132.206-.136.202-.136.205-.136.203-.136.205-.135.202-.14.202-.136.202-.14.202-.139.203-.14.198-.139.202-.144.198-.139.202-.144.199-.143.198-.143.199-.143.198-.147.195-.144.198-.147.195-.146.198-.147.195-.147.195-.147.194-.151.195-.147.195-.151.191-.15.194-.151.191-.15.191-.155.192-.154.191-.151.191-.154.191-.154.187-.155.191-.157.187-.155.188-.158.187-.158.187-.158.188-.158.187-.158.184-.158.187-.161.184-.162.184-.162.183-.158.184-.165.184-.161.183-.162.18-.165.18-.166.184-.165.18-.165.18-.166.18-.165.176-.169.18-.165.177-.169.18-.169.176-.169.176-.169.173-.169.176-.173.177-.169.172-.173.177-.172.172-.173.173-.173.173-.176.172-.173.169-.176.173-.173.169-.176.169-.176.169-.177.169-.18.169-.176.165-.18.169-.176.166-.18.165-.18.165-.18.166-.184.165-.18.165-.18.162-.184.162-.183.161-.184.162-.184.162-.184.161-.183.162-.184.158-.187.158-.188.158-.187.158-.187.158-.188.158-.187.154-.187.158-.191.154-.188.155-.191.154-.191.15-.191.155-.191.15-.191.155-.191.15-.195.151-.191.151-.194.146-.195.151-.195.147-.195.147-.194.147-.199.147-.194.147-.199.143-.194.147-.199.143-.198.144-.199.143-.198.143-.198.14-.202.143-.199.14-.202.139-.202.14-.202.139-.202.136-.202.14-.202.136-.206.136-.202.136-.206.136-.202.136-.205.132-.206.132-.206.136-.206.132-.205.129-.21.132-.205.129-.21.132-.209.129-.206.128-.209.129-.21.125-.213.128-.209.125-.21.125-.213.125-.209.125-.213.121-.213.125-.213.121-.213.121-.214.122-.213.121-.213.117-.216.122-.214.117-.216.118-.217.117-.217.118-.217.114-.216.117-.217.114-.217.114-.22.114-.217.11-.22.114-.217.11-.221.111-.22.11-.22.11-.221.107-.22.11-.224.106-.221.107-.22.106-.224.107-.224.103-.224.106-.225.103-.22.103-.224.099-.228.103-.224.099-.224.103-.228.099-.224.099-.228.096-.227.099-.228.096-.224.095-.228.096-.232.095-.227.096-.228.092-.228.091-.231.092-.232.092-.228.092-.231.088-.231.092-.232.088-.231.088-.232.085-.231.088-.232.085-.235.084-.231.085-.235.084-.235.085-.232.08-.235.081-.235.081-.235.081-.235.081-.236.077-.238.077-.235.077-.236.077-.238.077-.239.074-.235.077-.239.073-.239.074-.239.07-.238.073-.239.07-.239.07-.239.07-.242.069-.239.067-.243.069-.238.066-.243.067-.242.062-.243.066-.242.063-.243.062-.242.063-.243.062-.246.062-.242.059-.243.059-.246.059-.242.059-.246.055-.247.058-.246.056-.242.055-.246.055-.25.051-.246.052-.246.051-.247.051-.249.052-.246.051-.25.048-.246.048-.25.048-.25.047-.246.044-.25.045-.25.044-.25.044-.253.044-.25.04-.25.044-.253.041-.25.036-.254.041-.249.037-.254.04-.253.037-.25.033-.254.037-.253.033-.254.033-.253.033-.257.033-.254.029-.253.033-.257.03-.254.029-.257.026-.254.029-.257.026-.257.026-.257.025-.257.022-.257.026-.257.022-.258.022-.257.019-.261.022-.257.018-.257.018-.261.019-.257.018-.261.015-.261.014-.26.015-.258.015-.26.011-.261.011-.261.011-.265.011-.26.011-.261.007-.261.008-.265.007-.26.007-.265.008-.261.003-.264.004-.265.004-.264v-.265l.003-.264v-.529l-.003-.265v-.264l-.004-.265-.004-.261-.003-.264-.008-.265-.007-.261-.007-.264-.008-.261-.007-.264-.011-.261-.011-.261-.011-.261-.011-.261-.011-.261-.015-.26-.015-.261-.014-.261-.015-.261-.018-.257-.019-.261-.018-.261-.018-.257-.022-.257-.019-.261-.022-.257-.022-.257-.026-.257-.022-.258-.025-.257-.026-.257-.026-.253-.029-.258-.026-.257-.029-.253-.03-.257-.033-.254-.029-.257-.033-.254-.033-.253-.033-.253-.033-.254-.037-.253-.033-.254-.037-.253-.04-.254-.037-.253-.041-.25-.036-.254-.041-.25-.044-.249-.04-.254-.044-.25-.044-.249-.044-.25-.045-.25-.044-.25-.047-.25-.048-.25-.048-.246-.048-.249-.051-.247-.052-.249-.051-.247-.051-.249-.052-.247-.051-.246-.055-.246-.055-.246-.056-.246-.058-.246-.055-.246-.059-.243-.059-.246-.059-.242-.059-.247-.062-.242-.062-.243-.063-.246-.062-.242-.063-.243-.066-.242-.062-.243-.067-.238-.066-.243-.069-.242-.067-.239-.069-.242-.07-.239-.07-.239-.07-.243-.073-.238-.07-.239-.074-.239-.073-.239-.077-.235-.074-.239-.077-.238-.077-.236-.077-.238-.077-.235-.077-.236-.081-.235-.081-.238-.081-.232-.081-.235-.08-.235-.085-.235-.084-.235-.085-.232-.084-.235-.085-.231-.088-.232-.088-.235-.085-.231-.088-.232-.092-.231-.088-.232-.092-.228-.092-.231-.092-.231-.091-.228-.092-.232-.096-.227-.095-.228-.096-.228-.095-.228-.096-.227-.099-.228-.096-.228-.099-.224-.099-.228-.103-.224-.099-.228-.103-.224-.099-.224-.103-.224-.103-.224-.106-.224-.103-.224-.107-.224-.106-.221-.107-.224-.106-.22-.11-.221-.107-.224-.11-.22-.11-.217-.111-.221-.11-.22-.114-.22-.11-.217-.114-.221-.114-.216-.114-.221-.117-.216-.114-.217-.118-.217-.117-.217-.118-.216-.117-.214-.122-.216-.117-.213-.121-.213-.122-.217-.121-.213-.121-.213-.125-.213-.121-.21-.125-.213-.125-.213-.125-.209-.125-.213-.128-.21-.125-.209-.129-.21-.128-.209-.129-.209-.132-.21-.129-.206-.132-.209-.129-.206-.132-.205-.136-.21-.132-.206-.132-.205-.136-.202-.136-.206-.136-.206-.136-.202-.136-.202-.14-.206-.136-.202-.139-.202-.14-.202-.139-.198-.14-.202-.143-.202-.14-.199-.143-.198-.143-.202-.144-.199-.143-.198-.147-.195-.143-.198-.147-.198-.147-.195-.147-.195-.147-.198-.147-.195-.151-.195-.146-.194-.151-.191-.151-.195-.15-.191-.155-.195-.15-.191-.155-.191-.15-.191-.154-.191-.155-.187-.154-.191-.158-.191-.154-.188-.158-.187-.158-.187-.158-.188-.158-.187-.158-.188-.158-.183-.162-.184-.161-.187-.162-.184-.162-.184-.161-.183-.162-.184-.162-.18-.165-.184-.165-.18-.166-.18-.165-.183-.165-.177-.166-.18-.169-.18-.165-.176-.169-.18-.169-.176-.169-.177-.169-.176-.169-.176-.173-.177-.169-.172-.172-.177-.173-.172-.173-.177-.172-.169-.177-.172-.172-.173-.177-.173-.176-.169-.173-.172-.176-.169-.176-.169-.18-.169-.177-.166-.18-.169-.176-.165-.18-.169-.18-.165-.18-.166-.184-.165-.18-.165-.18-.162-.183-.165-.184-.162-.184-.162-.183-.161-.184-.162-.184-.162-.187-.157-.184-.162-.187-.158-.188-.158-.187-.158-.187-.158-.188-.154-.187-.158-.191-.155-.187-.154-.191-.154-.191-.154-.191-.155-.192-.154-.191-.151-.191-.15-.194-.151-.191-.151-.195-.15-.195-.151-.194-.147-.195-.15-.195-.147-.198-.147-.195-.147-.198-.143-.195-.147-.198-.144-.199-.147-.198-.143-.199-.143-.202-.14-.198-.143-.202-.14-.198-.143-.203-.14-.202-.139-.202-.136-.202-.14-.202-.136-.205-.139-.203-.136-.205-.136-.202-.136-.206-.132-.206-.136-.205-.132-.206-.133-.206-.132-.209-.132-.206-.132-.209-.129-.21-.129-.206-.128-.209-.129-.213-.128-.209-.129-.21-.125-.209-.128-.213-.125-.21-.125-.213-.121-.213-.125-.213-.125-.213-.122-.213-.121-.213-.121-.213-.121-.217-.118-.217-.121-.213-.118-.217-.117-.216-.118-.217-.114-.217-.117-.217-.114-.216-.114-.221-.114-.217-.114-.22-.114-.217-.11-.22-.114-.221-.11-.22-.11-.22-.11-.221-.107-.224-.11-.22-.107-.224-.106-.221-.107-.224-.103-.224-.106-.221-.103-.224-.103-.227-.103-.224-.103-.225-.102-.224-.1-.227-.099-.225-.099-.227-.099-.228-.099-.228-.096-.224-.099-.228-.096-.231-.095-.228-.096-.228-.091-.231-.096-.228-.092-.231-.092-.228-.091-.232-.089-.231-.092-.231-.088-.232-.088-.231-.088-.232-.088-.231-.085-.235-.088-.232-.084-.235-.085-.235-.084-.231-.081-.236-.085-.235-.08-.235-.081-.235-.081-.235-.077-.239-.081-.235-.077-.235-.077-.239-.078-.239-.077-.235-.073-.239-.074-.238-.073-.239-.074-.239-.073-.239-.07-.239-.073-.242-.07-.239-.07-.239-.07-.242-.066-.243-.066-.238-.066-.243-.066-.242-.066-.243-.066-.242-.063-.243-.062-.242-.063-.243-.062-.246-.059-.242-.063-.246-.058-.243-.059-.246-.059-.246-.055-.246-.055-.246-.059-.247-.051-.246-.055-.246-.056-.246-.051-.246-.051-.25-.052-.246-.051-.25-.048-.246-.051-.25-.048-.25-.048-.249-.044-.247-.048-.249-.044-.254-.044-.25-.044-.25-.044-.249-.041-.254-.04-.25-.04-.253-.041-.25-.04-.253-.037-.254-.037-.25-.036-.253-.037-.254-.037-.253-.033-.257-.033-.254-.033-.253-.033-.254-.03-.257-.029-.253-.029-.258-.03-.253-.029-.257-.026-.257-.029-.258-.026-.257-.022-.257-.026-.257-.022-.257-.022-.257-.022-.258-.022-.26-.018-.258-.022-.26-.019-.258-.018-.26-.015-.261-.018-.261-.015-.257-.014-.261-.011-.261-.015-.261-.011-.264-.011-.261-.011-.261-.011-.261-.008-.264-.007-.261-.007-.265-.008-.264-.003-.261-.004-.264-.004-.265-.003-.264-.004h-.794zM753.677 546.671L564.659 455.06 738.1 338.003l15.577 208.668zm-135.054-95.458l104.637 50.714-8.622-115.515-96.015 64.801z" fill="#f1f3f9"/><path d="M805.059 428.563l-63.104-30.585 57.904-39.08 5.2 69.665zm-43.116-32.01l31.851 15.437-2.625-35.162-29.226 19.725z" fill="#477fff"/></svg>
